<svg width="75" height="20" viewBox="0 0 75 20" fill="none" xmlns="http://www.w3.org/2000/svg"><mask id="mask192346" style="mask-type:alpha" maskUnits="userSpaceOnUse" x="0" y="0" width="75" height="20"><g clip-path="url(#cp192346)"><path fill-rule="evenodd" clip-rule="evenodd" d="M74.6136 3.45837C74.3482 3.16077 73.9932 3.01037 73.5135 3.01037C73.0338 3.01037 72.6676 3.16877 72.4118 3.49677C72.1575 3.81357 72.0248 4.29037 72.0248 4.91437V9.43757C71.4348 8.80237 70.8223 8.34637 70.2003 8.03917C69.8118 7.85197 69.3545 7.71277 68.8444 7.64237C68.5486 7.60237 68.2431 7.58157 67.9074 7.58157C66.3483 7.58157 65.0851 8.11757 64.1161 9.18957C63.1583 10.2616 62.6786 11.7496 62.6786 13.6616C62.6786 14.5656 62.8017 15.4088 63.0448 16.1816C63.291 16.9544 63.6348 17.6296 64.1049 18.204C64.5734 18.78 65.1347 19.2152 65.7759 19.5336C66.4171 19.8408 67.111 19.9992 67.8642 19.9992C68.2096 19.9992 68.5358 19.9704 68.8412 19.9112C69.0458 19.8808 69.2377 19.8312 69.4328 19.7704C69.9109 19.612 70.3602 19.3848 70.768 19.0968C71.1853 18.7992 71.6043 18.412 72.0216 17.9464V18.244C72.0216 18.8088 72.1639 19.236 72.4389 19.5432C72.7252 19.8408 73.0817 19.9992 73.5087 19.9992C73.9468 19.9992 74.3034 19.8504 74.5784 19.564C74.8519 19.2664 74.9958 18.8296 74.9958 18.2456V4.75757C75.0006 4.19117 74.8678 3.75437 74.6136 3.45837ZM71.4444 15.9352C71.1693 16.5096 70.8016 16.9368 70.3538 17.2152C69.8949 17.4936 69.3944 17.6312 68.8444 17.6312H68.8348C68.2831 17.6312 67.7842 17.4824 67.3253 17.196C66.8664 16.8984 66.5002 16.4616 66.2364 15.8872C65.9725 15.3016 65.8398 14.5976 65.8398 13.764C65.8398 12.98 65.9613 12.2872 66.2172 11.7016C66.4618 11.1064 66.8184 10.6504 67.2677 10.3336C67.7267 10.0056 68.2367 9.85677 68.8156 9.85677H68.846C69.3864 9.85677 69.8853 10.0152 70.3442 10.3224C70.8032 10.6296 71.1693 11.0776 71.4444 11.6616C71.7194 12.2472 71.8521 12.9512 71.8521 13.764C71.8521 14.636 71.7194 15.3608 71.4444 15.9352ZM61.5481 16.0648C61.3546 15.8968 61.0892 15.8072 60.763 15.8072C60.4672 15.8072 60.2433 15.8776 60.0802 16.0056C59.682 16.3624 59.367 16.6504 59.1208 16.8584C58.8777 17.0568 58.6011 17.2552 58.3069 17.4424C58.0223 17.6216 57.7153 17.7608 57.4114 17.8408C57.0948 17.9288 56.759 17.9688 56.3817 17.9688C56.3001 17.9688 56.2186 17.9688 56.1466 17.9592C55.6765 17.9304 55.24 17.8008 54.8434 17.5624C54.3733 17.2952 54.0071 16.9 53.7209 16.3832C53.4459 15.8472 53.3036 15.2328 53.294 14.5384H59.439C60.2641 14.5384 60.9053 14.4184 61.3546 14.2008C61.8135 13.9624 62.0374 13.4664 62.0374 12.7032C62.0374 11.8696 61.8135 11.0568 61.3754 10.2536C60.9373 9.45837 60.2849 8.80397 59.399 8.29997C58.5212 7.79437 57.4722 7.54637 56.2394 7.54637H56.1482C55.2416 7.55597 54.4053 7.70637 53.6618 7.98317C52.8878 8.28077 52.2338 8.70797 51.6934 9.25197C51.1753 9.80717 50.7675 10.4712 50.4925 11.2456C50.2175 12.02 50.0736 12.8632 50.0736 13.764C50.0736 15.6888 50.6348 17.196 51.7557 18.316C52.8143 19.3784 54.2822 19.9336 56.1466 19.9928C56.249 20.0024 56.3593 20.0024 56.4728 20.0024C57.3491 20.0024 58.1326 19.8936 58.8154 19.6664C59.4982 19.4376 60.0594 19.1592 60.5087 18.8232C60.9548 18.476 61.2922 18.1192 61.5161 17.7528C61.74 17.3864 61.8535 17.0584 61.8535 16.7896C61.8535 16.4808 61.7528 16.2328 61.5481 16.0648ZM54.2118 10.46C54.7123 9.93357 55.3535 9.67597 56.1386 9.67597H56.1498C56.9637 9.67597 57.6273 9.93357 58.1262 10.4488C58.6267 10.9656 58.9209 11.7496 58.9929 12.7992H53.2956C53.3963 11.7688 53.7033 10.9848 54.2118 10.46ZM48.1676 15.8056C47.8621 15.8056 47.6383 15.876 47.4752 16.004C47.0882 16.3608 46.762 16.6488 46.5174 16.8568C46.2727 17.0552 46.0073 17.2536 45.7115 17.4408C45.4173 17.62 45.1198 17.7592 44.8048 17.8392C44.4994 17.9272 44.1524 17.9672 43.7751 17.9672C43.6951 17.9672 43.6136 17.9672 43.5416 17.9576C43.0715 17.9288 42.635 17.7992 42.2368 17.5608C41.7795 17.2936 41.4021 16.8984 41.1271 16.3816C40.8409 15.8456 40.6986 15.2312 40.6874 14.5368H46.842C47.6575 14.5368 48.2987 14.4168 48.7576 14.1992C49.2053 13.9608 49.4308 13.4648 49.4308 12.7016C49.4308 11.868 49.2165 11.0552 48.7784 10.252C48.3403 9.45677 47.6783 8.80237 46.802 8.29837C45.9241 7.79277 44.8656 7.54477 43.644 7.54477H43.5416C42.635 7.55437 41.8099 7.70477 41.0552 7.98157C40.2796 8.27917 39.6272 8.70637 39.098 9.25037C38.5687 9.80557 38.1609 10.4696 37.8859 11.244C37.6093 12.0184 37.467 12.8616 37.467 13.7624C37.467 15.6872 38.0378 17.1944 39.1587 18.3144C40.2189 19.3768 41.6756 19.932 43.54 19.9912C43.652 20.0008 43.7527 20.0008 43.8662 20.0008C44.7521 20.0008 45.5276 19.892 46.2088 19.6648C46.8916 19.436 47.4528 19.1576 47.9005 18.8216C48.3594 18.4744 48.6856 18.1176 48.9095 17.7512C49.1334 17.3848 49.2469 17.0568 49.2469 16.788C49.2469 16.4808 49.1446 16.2328 48.9511 16.0648C48.7496 15.8952 48.4826 15.8056 48.1676 15.8056ZM41.6052 10.46C42.1041 9.93357 42.7469 9.67597 43.532 9.67597H43.5432C44.3571 9.67597 45.0207 9.93357 45.5196 10.4488C46.0281 10.9656 46.3143 11.7496 46.3959 12.7992H40.689C40.8009 11.7688 41.1079 10.9848 41.6052 10.46ZM6.54691 17.9688V10.668C6.75958 10.6872 6.96425 10.6968 7.17852 10.6968C8.19709 10.6968 9.1565 10.4296 9.9704 9.95277V17.9672C9.9704 18.652 9.8073 19.1576 9.49069 19.4952C9.17569 19.8312 8.75675 19.9992 8.24826 19.9992C7.74777 19.9992 7.35122 19.8312 7.02502 19.484C6.71001 19.148 6.54691 18.6424 6.54691 17.9688ZM36.1478 3.45837C35.8824 3.16077 35.5162 3.01037 35.0573 3.01037C34.5776 3.01037 34.2114 3.16877 33.9556 3.49677C33.6917 3.81357 33.5686 4.29037 33.5686 4.91437V9.43757C32.9786 8.80237 32.3677 8.34637 31.7441 8.03917C31.3476 7.85197 30.8982 7.71277 30.3898 7.64237C30.0955 7.60237 29.7885 7.58157 29.4527 7.58157C27.8937 7.58157 26.6193 8.11757 25.6615 9.18957C24.7037 10.2616 24.224 11.7496 24.224 13.6616C24.224 14.5656 24.3471 15.4088 24.5805 16.1816C24.8252 16.9544 25.1818 17.6296 25.6519 18.204C26.1204 18.78 26.6801 19.2152 27.3229 19.5336C27.9657 19.8408 28.6564 19.9992 29.4112 19.9992C29.747 19.9992 30.0732 19.9704 30.3882 19.9112C30.5928 19.8808 30.7863 19.8312 30.9798 19.7704C31.4579 19.612 31.9072 19.3848 32.315 19.0968C32.7323 18.7992 33.1417 18.412 33.567 17.9464V18.244C33.567 18.8088 33.7109 19.236 33.9859 19.5432C34.261 19.8408 34.6287 19.9992 35.0557 19.9992C35.473 19.9992 35.8408 19.8504 36.1158 19.564C36.3908 19.2664 36.522 18.8296 36.522 18.2456V4.75757C36.5236 4.19117 36.402 3.75437 36.1478 3.45837ZM32.9881 15.9352C32.7131 16.5096 32.3453 16.9368 31.888 17.2152C31.4387 17.4936 30.9286 17.6312 30.3898 17.6312H30.3802C29.8301 17.6312 29.3296 17.4824 28.8723 17.196C28.4038 16.8984 28.0472 16.4616 27.7818 15.8872C27.5179 15.3016 27.3852 14.5976 27.3852 13.764C27.3852 12.98 27.5083 12.2872 27.7514 11.7016C28.0056 11.1064 28.3526 10.6504 28.8115 10.3336C29.2593 10.0056 29.7789 9.85677 30.3498 9.85677H30.3898C30.9302 9.85677 31.4291 10.0152 31.8784 10.3224C32.3469 10.6296 32.7131 11.0776 32.9881 11.6616C33.252 12.2472 33.3959 12.9512 33.3959 13.764C33.3959 14.636 33.252 15.3608 32.9881 15.9352ZM14.9945 9.25037V9.62797C15.5541 8.91277 16.1554 8.39757 16.8078 8.05997C17.4697 7.73357 18.2245 7.56397 19.08 7.56397C19.9066 7.56397 20.6502 7.74317 21.301 8.09037C21.9534 8.43597 22.4315 8.93357 22.7577 9.57837C22.9719 9.95437 23.1047 10.3624 23.1654 10.7992C23.2262 11.2248 23.2566 11.78 23.2566 12.4552V18.14C23.2566 18.7544 23.1031 19.22 22.8184 19.5272C22.5338 19.844 22.1564 20.0024 21.6975 20.0024C21.229 20.0024 20.8517 19.844 20.5558 19.5176C20.26 19.1992 20.1177 18.7352 20.1177 18.14V13.0472C20.1177 12.036 19.9738 11.2632 19.6892 10.7272C19.4045 10.1928 18.8225 9.92397 17.9686 9.92397C17.4074 9.92397 16.8989 10.092 16.44 10.4104C15.9811 10.7384 15.6357 11.1832 15.4214 11.7592C15.2679 12.2152 15.1976 13.0584 15.1976 14.3192V18.1384C15.1976 18.7624 15.0456 19.2184 14.7498 19.5368C14.454 19.844 14.0782 20.0024 13.6081 20.0024C13.1492 20.0024 12.7814 19.844 12.4872 19.5176C12.1914 19.1992 12.0491 18.7352 12.0491 18.14V9.29997C12.0491 8.71597 12.1818 8.27917 12.4473 8.00077C12.7015 7.71437 13.0581 7.56397 13.517 7.56397C13.792 7.56397 14.0367 7.62317 14.2605 7.75277C14.4844 7.88077 14.6667 8.06957 14.801 8.32717C14.9321 8.58477 14.9945 8.89357 14.9945 9.25037ZM6.5661 0.472761C8.68639 -0.271239 11.1009 -0.231239 12.9142 1.29516C13.2516 1.60236 13.6369 1.98956 13.7904 2.44556C13.9743 3.02157 13.1492 2.38477 13.0357 2.30637C12.4441 1.92876 11.854 1.61196 11.192 1.39436C7.62624 0.323961 4.25233 2.25837 2.15443 5.26317C1.27817 6.59117 0.707321 7.98957 0.23881 9.52717C0.187642 9.69517 0.147667 9.91437 0.0549242 10.0616C-0.0378184 10.2312 0.0149489 9.60717 0.0149489 9.58637C0.0853054 8.95117 0.218023 8.33677 0.382721 7.72237C1.35013 4.44877 3.4896 1.72236 6.5661 0.472761ZM10.6724 6.35437C10.6724 7.74477 9.54506 8.87277 8.15552 8.87277C6.76598 8.87277 5.64027 7.74477 5.64027 6.35437C5.64027 4.96397 6.76598 3.83597 8.15552 3.83597C9.54506 3.83597 10.6724 4.96237 10.6724 6.35437Z" fill="white"></path></g></mask><g mask="url(#mask192346)"><path fill-rule="evenodd" clip-rule="evenodd" d="M7.57184 24.4674C7.27294 24.3782 6.97397 24.2851 6.67492 24.188L6.42914 11.3938C18.0028 15.1509 29.4622 12.9586 40.9216 10.7664C52.3809 8.57412 63.8403 6.38186 75.414 10.1389L75.5918 19.3941C75.8907 19.4833 76.1897 19.5764 76.4887 19.6735L76.7345 32.4677C65.1608 28.7107 53.7014 30.9029 42.2421 33.0952C30.7827 35.2874 19.3233 37.4797 7.74964 33.7226L7.57184 24.4674Z" fill="#EABD05"></path><path fill-rule="evenodd" clip-rule="evenodd" d="M-1.12931 3.02599C-1.46434 2.94576 -1.79946 2.86205 -2.13466 2.77475L-2.40942 -8.69978C10.5288 -5.33026 23.3392 -7.2964 36.1496 -9.26253C48.9601 -11.2287 61.7705 -13.1948 74.7087 -9.82528L74.9066 -1.56238C75.2417 -1.47877 75.5769 -1.39154 75.9122 -1.30058C75.9598 0.688715 75.936 3.88634 75.9122 7.08396C75.8884 10.2816 75.8645 13.4792 75.9122 15.4685C55.8087 9.7663 47.312 11.181 37.9525 12.7393C29.178 14.2003 19.6452 15.7875 -0.920285 11.7552L-1.12931 3.02599Z" fill="#2059B1"></path></g><defs><clipPath id="cp192346"><rect width="75" height="20" fill="white"></rect></clipPath></defs></svg>